<svg width="224" height="63" viewBox="0 0 224 63" fill="none" xmlns="http://www.w3.org/2000/svg">
<path d="M14.922 28.608C12.794 28.608 10.818 28.2787 8.994 27.62C7.19533 26.936 5.62467 25.9733 4.282 24.732C2.96467 23.4907 1.93867 22.0213 1.204 20.324C0.469333 18.6267 0.102 16.752 0.102 14.7C0.102 12.648 0.469333 10.7733 1.204 9.076C1.93867 7.37867 2.96467 5.90933 4.282 4.668C5.62467 3.42667 7.19533 2.47667 8.994 1.818C10.818 1.134 12.794 0.791999 14.922 0.791999C17.5313 0.791999 19.8367 1.248 21.838 2.16C23.8647 3.072 25.5367 4.38933 26.854 6.112L21.192 11.166C20.4067 10.178 19.5327 9.418 18.57 8.886C17.6327 8.32867 16.5687 8.05 15.378 8.05C14.4407 8.05 13.592 8.202 12.832 8.506C12.072 8.81 11.4133 9.25333 10.856 9.836C10.324 10.4187 9.906 11.128 9.602 11.964C9.298 12.7747 9.146 13.6867 9.146 14.7C9.146 15.7133 9.298 16.638 9.602 17.474C9.906 18.2847 10.324 18.9813 10.856 19.564C11.4133 20.1467 12.072 20.59 12.832 20.894C13.592 21.198 14.4407 21.35 15.378 21.35C16.5687 21.35 17.6327 21.084 18.57 20.552C19.5327 19.9947 20.4067 19.222 21.192 18.234L26.854 23.288C25.5367 24.9853 23.8647 26.3027 21.838 27.24C19.8367 28.152 17.5313 28.608 14.922 28.608ZM41.3127 28.608C39.1594 28.608 37.158 28.266 35.3087 27.582C33.4847 26.898 31.9014 25.9353 30.5587 24.694C29.216 23.4273 28.1647 21.9453 27.4047 20.248C26.67 18.5507 26.3027 16.7013 26.3027 14.7C26.3027 12.6733 26.67 10.824 27.4047 9.152C28.1647 7.45467 29.216 5.98533 30.5587 4.744C31.9014 3.47733 33.4847 2.502 35.3087 1.818C37.158 1.134 39.1594 0.791999 41.3127 0.791999C43.4914 0.791999 45.4927 1.134 47.3167 1.818C49.1407 2.502 50.724 3.47733 52.0667 4.744C53.4094 5.98533 54.448 7.45467 55.1827 9.152C55.9427 10.824 56.3227 12.6733 56.3227 14.7C56.3227 16.7013 55.9427 18.5507 55.1827 20.248C54.448 21.9453 53.4094 23.4273 52.0667 24.694C50.724 25.9353 49.1407 26.898 47.3167 27.582C45.4927 28.266 43.4914 28.608 41.3127 28.608ZM41.3127 21.35C42.1487 21.35 42.9214 21.198 43.6307 20.894C44.3654 20.59 44.9987 20.1593 45.5307 19.602C46.088 19.0193 46.5187 18.3227 46.8227 17.512C47.1267 16.676 47.2787 15.7387 47.2787 14.7C47.2787 13.6613 47.1267 12.7367 46.8227 11.926C46.5187 11.09 46.088 10.3933 45.5307 9.836C44.9987 9.25333 44.3654 8.81 43.6307 8.506C42.9214 8.202 42.1487 8.05 41.3127 8.05C40.4767 8.05 39.6914 8.202 38.9567 8.506C38.2474 8.81 37.614 9.25333 37.0567 9.836C36.5247 10.3933 36.1067 11.09 35.8027 11.926C35.4987 12.7367 35.3467 13.6613 35.3467 14.7C35.3467 15.7387 35.4987 16.676 35.8027 17.512C36.1067 18.3227 36.5247 19.0193 37.0567 19.602C37.614 20.1593 38.2474 20.59 38.9567 20.894C39.6914 21.198 40.4767 21.35 41.3127 21.35ZM70.7876 28.608C66.709 28.608 63.5296 27.506 61.2496 25.302C58.9696 23.098 57.8296 20.0073 57.8296 16.03V1.4H66.7976V15.764C66.7976 17.7907 67.165 19.2347 67.8996 20.096C68.6343 20.932 69.6223 21.35 70.8636 21.35C72.1303 21.35 73.1183 20.932 73.8276 20.096C74.5623 19.2347 74.9296 17.7907 74.9296 15.764V1.4H83.7456V16.03C83.7456 20.0073 82.6056 23.098 80.3256 25.302C78.0456 27.506 74.8663 28.608 70.7876 28.608ZM86.3365 28V1.4H93.7085L107.236 17.588H103.816V1.4H112.556V28H105.184L91.6565 11.812H95.0765V28H86.3365ZM121.133 28V8.354H113.343V1.4H137.891V8.354H130.101V28H121.133ZM138.701 28V1.4H151.507C153.989 1.4 156.13 1.80533 157.929 2.616C159.753 3.42667 161.159 4.592 162.147 6.112C163.135 7.60667 163.629 9.38 163.629 11.432C163.629 13.484 163.135 15.2573 162.147 16.752C161.159 18.2213 159.753 19.3487 157.929 20.134C156.13 20.9193 153.989 21.312 151.507 21.312H143.679L147.669 17.626V28H138.701ZM154.623 28L148.087 18.31H157.587L164.199 28H154.623ZM147.669 18.614L143.679 14.548H150.937C152.178 14.548 153.09 14.2693 153.673 13.712C154.281 13.1547 154.585 12.3947 154.585 11.432C154.585 10.4693 154.281 9.70933 153.673 9.152C153.09 8.59467 152.178 8.316 150.937 8.316H143.679L147.669 4.25V18.614ZM165.495 28V1.4H174.463V28H165.495ZM185.468 11.28H197.324V17.74H185.468V11.28ZM186.076 21.236H199.376V28H177.26V1.4H198.882V8.164H186.076V21.236ZM211.227 28.608C208.997 28.608 206.844 28.3547 204.767 27.848C202.689 27.3413 200.979 26.6827 199.637 25.872L202.525 19.336C203.791 20.0707 205.197 20.666 206.743 21.122C208.313 21.5527 209.833 21.768 211.303 21.768C212.164 21.768 212.835 21.7173 213.317 21.616C213.823 21.4893 214.191 21.3247 214.419 21.122C214.647 20.894 214.761 20.628 214.761 20.324C214.761 19.8427 214.495 19.4627 213.963 19.184C213.431 18.9053 212.721 18.6773 211.835 18.5C210.973 18.2973 210.023 18.0947 208.985 17.892C207.946 17.664 206.895 17.3727 205.831 17.018C204.792 16.6633 203.829 16.1947 202.943 15.612C202.081 15.0293 201.385 14.2693 200.853 13.332C200.321 12.3693 200.055 11.1787 200.055 9.76C200.055 8.11333 200.511 6.61867 201.423 5.276C202.36 3.908 203.741 2.81867 205.565 2.008C207.414 1.19733 209.707 0.791999 212.443 0.791999C214.241 0.791999 216.015 0.981999 217.763 1.362C219.511 1.742 221.081 2.32467 222.475 3.11L219.777 9.608C218.459 8.94933 217.18 8.45533 215.939 8.126C214.723 7.79667 213.532 7.632 212.367 7.632C211.505 7.632 210.821 7.708 210.315 7.86C209.808 8.012 209.441 8.21467 209.213 8.468C209.01 8.72133 208.909 9 208.909 9.304C208.909 9.76 209.175 10.1273 209.707 10.406C210.239 10.6593 210.935 10.8747 211.797 11.052C212.683 11.2293 213.646 11.4193 214.685 11.622C215.749 11.8247 216.8 12.1033 217.839 12.458C218.877 12.8127 219.827 13.2813 220.689 13.864C221.575 14.4467 222.285 15.2067 222.817 16.144C223.349 17.0813 223.615 18.2467 223.615 19.64C223.615 21.2613 223.146 22.756 222.209 24.124C221.297 25.4667 219.929 26.556 218.105 27.392C216.281 28.2027 213.988 28.608 211.227 28.608ZM40.2321 62.608C38.1041 62.608 36.1281 62.2787 34.3041 61.62C32.5054 60.936 30.9347 59.9733 29.5921 58.732C28.2747 57.4907 27.2487 56.0213 26.5141 54.324C25.7794 52.6267 25.4121 50.752 25.4121 48.7C25.4121 46.648 25.7794 44.7733 26.5141 43.076C27.2487 41.3787 28.2747 39.9093 29.5921 38.668C30.9347 37.4267 32.5054 36.4767 34.3041 35.818C36.1281 35.134 38.1041 34.792 40.2321 34.792C42.8414 34.792 45.1467 35.248 47.1481 36.16C49.1747 37.072 50.8467 38.3893 52.1641 40.112L46.5021 45.166C45.7167 44.178 44.8427 43.418 43.8801 42.886C42.9427 42.3287 41.8787 42.05 40.6881 42.05C39.7507 42.05 38.9021 42.202 38.1421 42.506C37.3821 42.81 36.7234 43.2533 36.1661 43.836C35.6341 44.4187 35.2161 45.128 34.9121 45.964C34.6081 46.7747 34.4561 47.6867 34.4561 48.7C34.4561 49.7133 34.6081 50.638 34.9121 51.474C35.2161 52.2847 35.6341 52.9813 36.1661 53.564C36.7234 54.1467 37.3821 54.59 38.1421 54.894C38.9021 55.198 39.7507 55.35 40.6881 55.35C41.8787 55.35 42.9427 55.084 43.8801 54.552C44.8427 53.9947 45.7167 53.222 46.5021 52.234L52.1641 57.288C50.8467 58.9853 49.1747 60.3027 47.1481 61.24C45.1467 62.152 42.8414 62.608 40.2321 62.608ZM53.2334 62V35.4H62.2014V62H53.2334ZM70.7746 62V42.354H62.9846V35.4H87.5326V42.354H79.7426V62H70.7746ZM88.3419 62V35.4H97.3099V62H88.3419ZM108.315 45.28H120.171V51.74H108.315V45.28ZM108.923 55.236H122.223V62H100.107V35.4H121.729V42.164H108.923V55.236ZM134.073 62.608C131.844 62.608 129.691 62.3547 127.613 61.848C125.536 61.3413 123.826 60.6827 122.483 59.872L125.371 53.336C126.638 54.0707 128.044 54.666 129.589 55.122C131.16 55.5527 132.68 55.768 134.149 55.768C135.011 55.768 135.682 55.7173 136.163 55.616C136.67 55.4893 137.037 55.3247 137.265 55.122C137.493 54.894 137.607 54.628 137.607 54.324C137.607 53.8427 137.341 53.4627 136.809 53.184C136.277 52.9053 135.568 52.6773 134.681 52.5C133.82 52.2973 132.87 52.0947 131.831 51.892C130.793 51.664 129.741 51.3727 128.677 51.018C127.639 50.6633 126.676 50.1947 125.789 49.612C124.928 49.0293 124.231 48.2693 123.699 47.332C123.167 46.3693 122.901 45.1787 122.901 43.76C122.901 42.1133 123.357 40.6187 124.269 39.276C125.207 37.908 126.587 36.8187 128.411 36.008C130.261 35.1973 132.553 34.792 135.289 34.792C137.088 34.792 138.861 34.982 140.609 35.362C142.357 35.742 143.928 36.3247 145.321 37.11L142.623 43.608C141.306 42.9493 140.027 42.4553 138.785 42.126C137.569 41.7967 136.379 41.632 135.213 41.632C134.352 41.632 133.668 41.708 133.161 41.86C132.655 42.012 132.287 42.2147 132.059 42.468C131.857 42.7213 131.755 43 131.755 43.304C131.755 43.76 132.021 44.1273 132.553 44.406C133.085 44.6593 133.782 44.8747 134.643 45.052C135.53 45.2293 136.493 45.4193 137.531 45.622C138.595 45.8247 139.647 46.1033 140.685 46.458C141.724 46.8127 142.674 47.2813 143.535 47.864C144.422 48.4467 145.131 49.2067 145.663 50.144C146.195 51.0813 146.461 52.2467 146.461 53.64C146.461 55.2613 145.993 56.756 145.055 58.124C144.143 59.4667 142.775 60.556 140.951 61.392C139.127 62.2027 136.835 62.608 134.073 62.608Z" fill="#6A1280"/>
<path d="M10.248 62.38C8.39867 62.38 6.73933 62.076 5.27 61.468C3.80067 60.86 2.648 60.024 1.812 58.96C0.976 57.896 0.558 56.6673 0.558 55.274C0.558 54.0073 0.836667 52.8673 1.394 51.854C1.95133 50.8407 2.838 49.878 4.054 48.966C5.27 48.0287 6.828 47.0913 8.728 46.154C10.2227 45.4193 11.388 44.7733 12.224 44.216C13.0853 43.6587 13.6807 43.1267 14.01 42.62C14.3647 42.1133 14.542 41.5813 14.542 41.024C14.542 40.264 14.276 39.656 13.744 39.2C13.212 38.7187 12.452 38.478 11.464 38.478C10.4 38.478 9.564 38.744 8.956 39.276C8.37333 39.7827 8.082 40.454 8.082 41.29C8.082 41.7207 8.158 42.1387 8.31 42.544C8.48733 42.9493 8.79133 43.4053 9.222 43.912C9.65267 44.4187 10.2733 45.0647 11.084 45.85L25.144 59.34L22.522 62.418L7.322 47.826C6.46067 46.99 5.764 46.2173 5.232 45.508C4.7 44.7987 4.32 44.1147 4.092 43.456C3.864 42.772 3.75 42.0753 3.75 41.366C3.75 40.1247 4.06667 39.0353 4.7 38.098C5.33333 37.1353 6.23267 36.4007 7.398 35.894C8.56333 35.362 9.91867 35.096 11.464 35.096C12.908 35.096 14.1493 35.3367 15.188 35.818C16.252 36.274 17.0753 36.9453 17.658 37.832C18.266 38.6933 18.57 39.732 18.57 40.948C18.57 42.012 18.304 43 17.772 43.912C17.24 44.7987 16.404 45.6473 15.264 46.458C14.1493 47.2687 12.6547 48.1173 10.78 49.004C9.38667 49.688 8.28467 50.334 7.474 50.942C6.66333 51.55 6.08067 52.158 5.726 52.766C5.37133 53.374 5.194 54.0453 5.194 54.78C5.194 55.5147 5.40933 56.1607 5.84 56.718C6.296 57.2753 6.92933 57.7187 7.74 58.048C8.55067 58.352 9.50067 58.504 10.59 58.504C12.2113 58.504 13.6807 58.1493 14.998 57.44C16.3407 56.7053 17.468 55.616 18.38 54.172C19.292 52.728 19.9507 50.942 20.356 48.814L24.194 50.068C23.662 52.6267 22.7373 54.8307 21.42 56.68C20.128 58.504 18.532 59.91 16.632 60.898C14.732 61.886 12.604 62.38 10.248 62.38Z" fill="#D90BB6"/>
</svg>
