<svg width="238" height="49" viewBox="0 0 238 49" fill="none" xmlns="http://www.w3.org/2000/svg">
<path d="M148.84 39.4C146.893 39.4 145.147 39.08 143.6 38.44C142.053 37.8 140.84 36.92 139.96 35.8C139.08 34.68 138.64 33.3867 138.64 31.92C138.64 30.5867 138.933 29.3867 139.52 28.32C140.107 27.2533 141.04 26.24 142.32 25.28C143.6 24.2933 145.24 23.3067 147.24 22.32C148.813 21.5467 150.04 20.8667 150.92 20.28C151.827 19.6933 152.453 19.1333 152.8 18.6C153.173 18.0667 153.36 17.5067 153.36 16.92C153.36 16.12 153.08 15.48 152.52 15C151.96 14.4933 151.16 14.24 150.12 14.24C149 14.24 148.12 14.52 147.48 15.08C146.867 15.6133 146.56 16.32 146.56 17.2C146.56 17.6533 146.64 18.0933 146.8 18.52C146.987 18.9467 147.307 19.4267 147.76 19.96C148.213 20.4933 148.867 21.1733 149.72 22L164.52 36.2L161.76 39.44L145.76 24.08C144.853 23.2 144.12 22.3867 143.56 21.64C143 20.8933 142.6 20.1733 142.36 19.48C142.12 18.76 142 18.0267 142 17.28C142 15.9733 142.333 14.8267 143 13.84C143.667 12.8267 144.613 12.0533 145.84 11.52C147.067 10.96 148.493 10.68 150.12 10.68C151.64 10.68 152.947 10.9333 154.04 11.44C155.16 11.92 156.027 12.6267 156.64 13.56C157.28 14.4667 157.6 15.56 157.6 16.84C157.6 17.96 157.32 19 156.76 19.96C156.2 20.8933 155.32 21.7867 154.12 22.64C152.947 23.4933 151.373 24.3867 149.4 25.32C147.933 26.04 146.773 26.72 145.92 27.36C145.067 28 144.453 28.64 144.08 29.28C143.707 29.92 143.52 30.6267 143.52 31.4C143.52 32.1733 143.747 32.8533 144.2 33.44C144.68 34.0267 145.347 34.4933 146.2 34.84C147.053 35.16 148.053 35.32 149.2 35.32C150.907 35.32 152.453 34.9467 153.84 34.2C155.253 33.4267 156.44 32.28 157.4 30.76C158.36 29.24 159.053 27.36 159.48 25.12L163.52 26.44C162.96 29.1333 161.987 31.4533 160.6 33.4C159.24 35.32 157.56 36.8 155.56 37.84C153.56 38.88 151.32 39.4 148.84 39.4Z" fill="#697177"/>
<path d="M10.056 34.384C8.712 34.384 7.464 34.176 6.312 33.76C5.176 33.328 4.184 32.72 3.336 31.936C2.504 31.152 1.856 30.224 1.392 29.152C0.928 28.08 0.696 26.896 0.696 25.6C0.696 24.304 0.928 23.12 1.392 22.048C1.856 20.976 2.504 20.048 3.336 19.264C4.184 18.48 5.176 17.88 6.312 17.464C7.464 17.032 8.712 16.816 10.056 16.816C11.704 16.816 13.16 17.104 14.424 17.68C15.704 18.256 16.76 19.088 17.592 20.176L14.016 23.368C13.52 22.744 12.968 22.264 12.36 21.928C11.768 21.576 11.096 21.4 10.344 21.4C9.752 21.4 9.216 21.496 8.736 21.688C8.256 21.88 7.84 22.16 7.488 22.528C7.152 22.896 6.888 23.344 6.696 23.872C6.504 24.384 6.408 24.96 6.408 25.6C6.408 26.24 6.504 26.824 6.696 27.352C6.888 27.864 7.152 28.304 7.488 28.672C7.84 29.04 8.256 29.32 8.736 29.512C9.216 29.704 9.752 29.8 10.344 29.8C11.096 29.8 11.768 29.632 12.36 29.296C12.968 28.944 13.52 28.456 14.016 27.832L17.592 31.024C16.76 32.096 15.704 32.928 14.424 33.52C13.16 34.096 11.704 34.384 10.056 34.384ZM26.7238 34.384C25.3638 34.384 24.0998 34.168 22.9318 33.736C21.7798 33.304 20.7798 32.696 19.9318 31.912C19.0838 31.112 18.4198 30.176 17.9398 29.104C17.4758 28.032 17.2438 26.864 17.2438 25.6C17.2438 24.32 17.4758 23.152 17.9398 22.096C18.4198 21.024 19.0838 20.096 19.9318 19.312C20.7798 18.512 21.7798 17.896 22.9318 17.464C24.0998 17.032 25.3638 16.816 26.7238 16.816C28.0998 16.816 29.3638 17.032 30.5158 17.464C31.6678 17.896 32.6678 18.512 33.5158 19.312C34.3638 20.096 35.0198 21.024 35.4838 22.096C35.9638 23.152 36.2038 24.32 36.2038 25.6C36.2038 26.864 35.9638 28.032 35.4838 29.104C35.0198 30.176 34.3638 31.112 33.5158 31.912C32.6678 32.696 31.6678 33.304 30.5158 33.736C29.3638 34.168 28.0998 34.384 26.7238 34.384ZM26.7238 29.8C27.2518 29.8 27.7398 29.704 28.1878 29.512C28.6518 29.32 29.0518 29.048 29.3878 28.696C29.7398 28.328 30.0118 27.888 30.2038 27.376C30.3958 26.848 30.4918 26.256 30.4918 25.6C30.4918 24.944 30.3958 24.36 30.2038 23.848C30.0118 23.32 29.7398 22.88 29.3878 22.528C29.0518 22.16 28.6518 21.88 28.1878 21.688C27.7398 21.496 27.2518 21.4 26.7238 21.4C26.1958 21.4 25.6998 21.496 25.2358 21.688C24.7878 21.88 24.3878 22.16 24.0358 22.528C23.6998 22.88 23.4358 23.32 23.2438 23.848C23.0518 24.36 22.9558 24.944 22.9558 25.6C22.9558 26.256 23.0518 26.848 23.2438 27.376C23.4358 27.888 23.6998 28.328 24.0358 28.696C24.3878 29.048 24.7878 29.32 25.2358 29.512C25.6998 29.704 26.1958 29.8 26.7238 29.8ZM45.3396 34.384C42.7636 34.384 40.7556 33.688 39.3156 32.296C37.8756 30.904 37.1556 28.952 37.1556 26.44V17.2H42.8196V26.272C42.8196 27.552 43.0516 28.464 43.5156 29.008C43.9796 29.536 44.6036 29.8 45.3876 29.8C46.1876 29.8 46.8116 29.536 47.2596 29.008C47.7236 28.464 47.9556 27.552 47.9556 26.272V17.2H53.5236V26.44C53.5236 28.952 52.8036 30.904 51.3636 32.296C49.9236 33.688 47.9156 34.384 45.3396 34.384ZM55.1599 34V17.2H59.8159L68.3599 27.424H66.1999V17.2H71.7199V34H67.0639L58.5199 23.776H60.6799V34H55.1599ZM77.1369 34V21.592H72.2169V17.2H87.7209V21.592H82.8009V34H77.1369ZM88.2321 34V17.2H96.3201C97.8881 17.2 99.2401 17.456 100.376 17.968C101.528 18.48 102.416 19.216 103.04 20.176C103.664 21.12 103.976 22.24 103.976 23.536C103.976 24.832 103.664 25.952 103.04 26.896C102.416 27.824 101.528 28.536 100.376 29.032C99.2401 29.528 97.8881 29.776 96.3201 29.776H91.3761L93.8961 27.448V34H88.2321ZM98.2881 34L94.1601 27.88H100.16L104.336 34H98.2881ZM93.8961 28.072L91.3761 25.504H95.9601C96.7441 25.504 97.3201 25.328 97.6881 24.976C98.0721 24.624 98.2641 24.144 98.2641 23.536C98.2641 22.928 98.0721 22.448 97.6881 22.096C97.3201 21.744 96.7441 21.568 95.9601 21.568H91.3761L93.8961 19V28.072ZM105.155 34V17.2H110.819V34H105.155ZM117.769 23.44H125.257V27.52H117.769V23.44ZM118.153 29.728H126.554V34H112.585V17.2H126.241V21.472H118.153V29.728ZM134.038 34.384C132.63 34.384 131.27 34.224 129.958 33.904C128.646 33.584 127.566 33.168 126.718 32.656L128.542 28.528C129.342 28.992 130.23 29.368 131.206 29.656C132.198 29.928 133.158 30.064 134.086 30.064C134.63 30.064 135.054 30.032 135.358 29.968C135.678 29.888 135.91 29.784 136.054 29.656C136.198 29.512 136.27 29.344 136.27 29.152C136.27 28.848 136.102 28.608 135.766 28.432C135.43 28.256 134.982 28.112 134.422 28C133.878 27.872 133.278 27.744 132.622 27.616C131.966 27.472 131.302 27.288 130.63 27.064C129.974 26.84 129.366 26.544 128.806 26.176C128.262 25.808 127.822 25.328 127.486 24.736C127.15 24.128 126.982 23.376 126.982 22.48C126.982 21.44 127.27 20.496 127.846 19.648C128.438 18.784 129.31 18.096 130.462 17.584C131.63 17.072 133.078 16.816 134.806 16.816C135.942 16.816 137.062 16.936 138.166 17.176C139.27 17.416 140.262 17.784 141.142 18.28L139.438 22.384C138.606 21.968 137.798 21.656 137.014 21.448C136.246 21.24 135.494 21.136 134.758 21.136C134.214 21.136 133.782 21.184 133.462 21.28C133.142 21.376 132.91 21.504 132.766 21.664C132.638 21.824 132.574 22 132.574 22.192C132.574 22.48 132.742 22.712 133.078 22.888C133.414 23.048 133.854 23.184 134.398 23.296C134.958 23.408 135.566 23.528 136.222 23.656C136.894 23.784 137.558 23.96 138.214 24.184C138.87 24.408 139.47 24.704 140.014 25.072C140.574 25.44 141.022 25.92 141.358 26.512C141.694 27.104 141.862 27.84 141.862 28.72C141.862 29.744 141.566 30.688 140.974 31.552C140.398 32.4 139.534 33.088 138.382 33.616C137.23 34.128 135.782 34.384 134.038 34.384ZM169.981 34.384C168.637 34.384 167.389 34.176 166.237 33.76C165.101 33.328 164.109 32.72 163.261 31.936C162.429 31.152 161.781 30.224 161.317 29.152C160.853 28.08 160.621 26.896 160.621 25.6C160.621 24.304 160.853 23.12 161.317 22.048C161.781 20.976 162.429 20.048 163.261 19.264C164.109 18.48 165.101 17.88 166.237 17.464C167.389 17.032 168.637 16.816 169.981 16.816C171.629 16.816 173.085 17.104 174.349 17.68C175.629 18.256 176.685 19.088 177.517 20.176L173.941 23.368C173.445 22.744 172.893 22.264 172.285 21.928C171.693 21.576 171.021 21.4 170.269 21.4C169.677 21.4 169.141 21.496 168.661 21.688C168.181 21.88 167.765 22.16 167.413 22.528C167.077 22.896 166.813 23.344 166.621 23.872C166.429 24.384 166.333 24.96 166.333 25.6C166.333 26.24 166.429 26.824 166.621 27.352C166.813 27.864 167.077 28.304 167.413 28.672C167.765 29.04 168.181 29.32 168.661 29.512C169.141 29.704 169.677 29.8 170.269 29.8C171.021 29.8 171.693 29.632 172.285 29.296C172.893 28.944 173.445 28.456 173.941 27.832L177.517 31.024C176.685 32.096 175.629 32.928 174.349 33.52C173.085 34.096 171.629 34.384 169.981 34.384ZM178.193 34V17.2H183.857V34H178.193ZM189.271 34V21.592H184.351V17.2H199.855V21.592H194.935V34H189.271ZM200.366 34V17.2H206.03V34H200.366ZM212.981 23.44H220.469V27.52H212.981V23.44ZM213.365 29.728H221.765V34H207.797V17.2H221.453V21.472H213.365V29.728ZM229.25 34.384C227.842 34.384 226.482 34.224 225.17 33.904C223.858 33.584 222.778 33.168 221.93 32.656L223.754 28.528C224.554 28.992 225.442 29.368 226.418 29.656C227.41 29.928 228.37 30.064 229.298 30.064C229.842 30.064 230.266 30.032 230.57 29.968C230.89 29.888 231.122 29.784 231.266 29.656C231.41 29.512 231.482 29.344 231.482 29.152C231.482 28.848 231.314 28.608 230.978 28.432C230.642 28.256 230.194 28.112 229.634 28C229.09 27.872 228.49 27.744 227.834 27.616C227.178 27.472 226.514 27.288 225.842 27.064C225.186 26.84 224.578 26.544 224.018 26.176C223.474 25.808 223.034 25.328 222.698 24.736C222.362 24.128 222.194 23.376 222.194 22.48C222.194 21.44 222.482 20.496 223.058 19.648C223.65 18.784 224.522 18.096 225.674 17.584C226.842 17.072 228.29 16.816 230.018 16.816C231.154 16.816 232.274 16.936 233.378 17.176C234.482 17.416 235.474 17.784 236.354 18.28L234.65 22.384C233.818 21.968 233.01 21.656 232.226 21.448C231.458 21.24 230.706 21.136 229.97 21.136C229.426 21.136 228.994 21.184 228.674 21.28C228.354 21.376 228.122 21.504 227.978 21.664C227.85 21.824 227.786 22 227.786 22.192C227.786 22.48 227.954 22.712 228.29 22.888C228.626 23.048 229.066 23.184 229.61 23.296C230.17 23.408 230.778 23.528 231.434 23.656C232.106 23.784 232.77 23.96 233.426 24.184C234.082 24.408 234.682 24.704 235.226 25.072C235.786 25.44 236.234 25.92 236.57 26.512C236.906 27.104 237.074 27.84 237.074 28.72C237.074 29.744 236.778 30.688 236.186 31.552C235.61 32.4 234.746 33.088 233.594 33.616C232.442 34.128 230.994 34.384 229.25 34.384Z" fill="#697177"/>
</svg>
