<svg width="20" height="22" viewBox="0 0 20 22" fill="none" xmlns="http://www.w3.org/2000/svg">
<path fill-rule="evenodd" clip-rule="evenodd" d="M9.99996 10.3333C12.6764 10.3333 14.8461 8.244 14.8461 5.66667C14.8461 3.08934 12.6764 1 9.99996 1C7.32351 1 5.15381 3.08934 5.15381 5.66667C5.15381 8.244 7.32351 10.3333 9.99996 10.3333Z" stroke="#697177" stroke-width="1.5" stroke-linecap="round" stroke-linejoin="round"/>
<path d="M5.82397 3.29688C7.33998 4.81159 9.43075 5.66711 11.6154 5.66665C12.7105 5.66707 13.7942 5.45201 14.8 5.03465" stroke="#697177" stroke-width="1.5" stroke-linecap="round" stroke-linejoin="round"/>
<path d="M1 21C1 16.2135 5.02944 12.3333 10 12.3333C14.9706 12.3333 19 16.2135 19 21" stroke="#697177" stroke-width="1.5" stroke-linecap="round" stroke-linejoin="round"/>
<path d="M6.53845 12.999V13.6666C6.53845 15.5075 8.08824 16.9999 9.99999 16.9999C11.9117 16.9999 13.4615 15.5075 13.4615 13.6666V12.999" stroke="#697177" stroke-width="1.5" stroke-linecap="round" stroke-linejoin="round"/>
</svg>
