<svg width="428" height="322" viewBox="0 0 428 322" fill="none" xmlns="http://www.w3.org/2000/svg">
<path d="M446 241.5C446 369.354 342.13 473 214 473C85.8699 473 -18 369.354 -18 241.5M446 241.5C446 113.646 342.13 10 214 10C85.8699 10 -18 113.646 -18 241.5M446 241.5H-18M158.093 466.23C126.706 420.3 105.733 336.837 105.733 241.5C105.733 146.163 126.706 62.6997 158.093 16.7701M17.7177 364.967H410.282M17.7177 118.033H410.282M269.907 16.7701C301.294 62.6997 322.267 146.163 322.267 241.5C322.267 336.837 301.294 420.3 269.907 466.23" stroke="white" stroke-opacity="0.3" stroke-width="20" stroke-linecap="round" stroke-linejoin="round"/>
</svg>
